<svg id="Layer_1" enable-background="new 0 0 512 512" height="512" viewBox="0 0 512 512" width="512" xmlns="http://www.w3.org/2000/svg"><g><path d="m218.126 334.125c-5.605-2.322-9.26-7.792-9.26-13.858v-49.465c-62.623-3.578-112.466-55.442-112.466-119.235v-32.134c0-65.855 53.578-119.433 119.433-119.433h80.333c65.856 0 119.434 53.578 119.434 119.433v32.134c0 65.945-53.365 119.433-119.433 119.433h-1.82l-59.874 59.873c-4.607 4.608-11.161 5.399-16.347 3.252z" fill="#fff5f0"/><path d="m296.167 0h-40.167v309.346l38.347-38.346h1.82c66.068 0 119.434-53.488 119.434-119.433v-32.134c-.001-65.855-53.579-119.433-119.434-119.433z" fill="#fdebe1"/><path d="m256 218.422c-2.118 0-4.235-.448-6.208-1.345-.876-.398-21.71-9.936-42.782-25.261-30.751-22.366-46.344-45.489-46.344-68.728 0-32.435 26.384-58.822 58.814-58.822 13.458 0 26.261 4.573 36.516 12.703 10.252-8.131 23.053-12.703 36.515-12.703 32.435 0 58.822 26.387 58.822 58.822 0 23.239-15.592 46.362-46.344 68.728-21.072 15.325-41.906 24.862-42.782 25.261-1.972.897-4.089 1.345-6.207 1.345z" fill="#f79"/><g><path d="m191.733 512h-160.667c-17.454 0-31.066-14.226-31.066-31.067 0-61.514 49.767-111.4 111.4-111.4 61.514 0 111.4 49.767 111.4 111.4 0 17.125-13.94 31.067-31.067 31.067z" fill="#ffc700"/><circle cx="111.4" cy="321.333" fill="#e49382" r="48.2"/><path d="m111.4 273.133c26.578 0 48.2 21.623 48.2 48.2 0 26.578-21.623 48.2-48.2 48.2z" fill="#d27769"/><path d="m191.733 512c17.127 0 31.066-13.942 31.066-31.067 0-61.633-49.886-111.4-111.4-111.4v142.467z" fill="#ffa800"/></g><g><path d="m480.934 512h-160.667c-17.454 0-31.066-14.226-31.066-31.067 0-61.514 49.767-111.4 111.4-111.4 61.514 0 111.4 49.767 111.4 111.4-.001 17.125-13.941 31.067-31.067 31.067z" fill="#00b9ff"/><circle cx="400.6" cy="321.333" fill="#ffcfc8" r="48.2"/><path d="m400.6 273.133c26.578 0 48.2 21.623 48.2 48.2 0 26.578-21.623 48.2-48.2 48.2z" fill="#feb6b4"/><path d="m480.934 512c17.126 0 31.066-13.942 31.066-31.067 0-61.633-49.886-111.4-111.4-111.4v142.467z" fill="#008ef7"/></g><path d="m255.997 76.97c10.252-8.131 23.053-12.703 36.515-12.703 32.435 0 58.822 26.387 58.822 58.822 0 23.239-15.592 46.362-46.344 68.728-21.072 15.325-41.906 24.862-42.782 25.261-1.972.896-4.09 1.345-6.208 1.345z" fill="#ed3c6a"/></g></svg>