<svg height="511pt" viewBox="-100 1 511 511.99999" width="511pt" xmlns="http://www.w3.org/2000/svg"><path d="m256.5 137.144531-18.285156 27.425781h-18.285156l-18.285157-27.425781v-27.429687h54.855469zm0 0" fill="#dc4d41"/><path d="m219.929688 164.570312 9.140624-27.425781 9.144532 27.425781v2.671876l-18.285156.191406zm0 0" fill="#ea6b65"/><path d="m203.171875 109.714844 25.898437 27.429687 27.429688-27.429687zm0 0" fill="#ea6b65"/><path d="m100.003906 429.96875s36.039063-60.578125 50.285156-70.890625l65.882813-47.753906c15.40625-13.0625 17.304687-36.140625 4.242187-51.546875s-36.140624-17.308594-51.546874-4.246094v.003906l-122.652344 101.035156-45.714844 118.859376 9.144531 36.570312h246.855469v-192c0-20.199219-16.375-36.570312-36.570312-36.570312-20.199219 0-36.574219 16.371093-36.574219 36.570312l.570312 41.964844c-.570312 40.320312-24.183593 56.695312-46.28125 67.75-.332031.164062.375 0 0 0z" fill="#fdc9a6"/><g fill="#b3e4e8"><path d="m155.929688 36.570312h18.285156v18.285157h-18.285156zm0 0"/><path d="m128.5 64h18.285156v18.285156h-18.285156zm0 0"/><path d="m155.929688 91.429688h18.285156v18.285156h-18.285156zm0 0"/><path d="m183.359375 64h18.285156v18.285156h-18.285156zm0 0"/><path d="m274.785156 0h18.285156v18.285156h-18.285156zm0 0"/><path d="m256.5 18.285156h18.285156v18.285156h-18.285156zm0 0"/><path d="m274.785156 36.570312h18.285156v18.285157h-18.285156zm0 0"/><path d="m293.070312 18.285156h18.289063v18.285156h-18.289063zm0 0"/></g><path d="m215.90625 283.832031c-1.695312-.261719-3.40625-.394531-5.121094-.402343-20.195312 0-36.570312 16.371093-36.570312 36.570312l.292968 21.511719 9.050782-6.5625-.203125-14.949219c.039062-18.59375 14.066406-34.179688 32.550781-36.167969zm0 0" fill="#f6bb92"/><path d="m229.070312 164.570312c-35.34375 0-64 28.65625-64 64 0 35.347657 28.65625 64 64 64 35.347657 0 64-28.652343 64-64 0-35.34375-28.652343-64-64-64zm0 91.429688c-15.148437 0-27.425781-12.28125-27.425781-27.429688 0-15.148437 12.28125-27.425781 27.425781-27.425781 15.148438 0 27.429688 12.277344 27.429688 27.425781 0 15.148438-12.28125 27.429688-27.429688 27.429688zm0 0" fill="#f7ba61"/><path d="m256.5 367.242188v-47.242188c0-20.199219-16.371094-36.570312-36.570312-36.570312-20.199219 0-36.570313 16.371093-36.570313 36.570312l.566406 41.964844z" fill="#fdc9a6"/></svg>